<?xml version="1.0" encoding="utf-8"?>
<!-- Generator: Adobe Illustrator 27.2.0, SVG Export Plug-In . SVG Version: 6.00 Build 0)  -->
<svg version="1.1" id="Слой_1" xmlns="http://www.w3.org/2000/svg" xmlns:xlink="http://www.w3.org/1999/xlink" x="0px" y="0px"
	 viewBox="0 0 595.28 328.89" style="enable-background:new 0 0 595.28 328.89;" xml:space="preserve">
<style type="text/css">
	.st0{display:none;fill:#FFFFFF;stroke:#000000;stroke-miterlimit:10;}
	.st1{fill:#F9E7D4;stroke:#000000;stroke-miterlimit:10;}
	.st2{fill:#D1C2B3;}
	.st3{fill:none;stroke:#000000;stroke-miterlimit:10;}
	.st4{fill:#FFFFFF;}
	.st5{fill:#F9E7D4;}
	.st6{fill:#CACACA;}
	.st7{fill:#FFFFFF;stroke:#000000;stroke-miterlimit:10;}
	.st8{fill:#D79BC7;}
	.st9{fill:#817F7E;stroke:#000000;stroke-miterlimit:10;}
	.st10{fill:#6C6A67;}
	.st11{fill:none;stroke:#000000;stroke-width:0.25;stroke-miterlimit:10;}
	.st12{fill:#7D5945;stroke:#000000;stroke-width:0.25;stroke-miterlimit:10;}
	.st13{fill:#C08BB2;stroke:#000000;stroke-width:0.5;stroke-miterlimit:10;}
	.st14{fill:#2E2B27;stroke:#000000;stroke-miterlimit:10;}
	.st15{fill:#497CBF;}
	.st16{fill:none;stroke:#497CBF;stroke-width:0.5;stroke-miterlimit:10;}
	.st17{fill:#465BA1;}
	.st18{fill:#374069;stroke:#374069;stroke-width:0.5;stroke-miterlimit:10;}
	.st19{fill:#FFF326;stroke:#F24942;stroke-width:2;stroke-miterlimit:10;}
</style>
<path class="st0" d="M-12.15-38.85"/>
<path class="st1" d="M509.34,151.74c-2-6.82-7.66-10.91-10.93-13.76c-7.6-6.65-27.12-7.51-41.81-0.14
	c-10.93,5.49-21.03,17.44-31.59,28.95c-12.42,13.54-20.88,28.9-24.55,42.31c-1.24,3.08-1.89,6.83-1.96,11.05
	c-0.3,4.27,0.05,8.15,1.07,11.47c1.36,7.21,3.99,15.07,7.93,22.93c5.16,10.29,11.68,18.87,18.38,24.85
	c-5.47,3.33-8.94,7.46-7.88,11.38c0.66,2.44-2.81,5.95-0.01,7.24c4.66,2.16,19.68,1.59,27-0.28c11.71-3,19.78-10.71,18.03-17.22
	c-0.59-2.2-2.03-4.16-3.16-6.56c-4.6-9.7-2.07-24.47-9.75-39.78c-0.34-0.67-0.68-1.33-1.02-1.98c8.36-5.1,17.13-11.56,25.83-18.79
	c7.01-5.83,15.49-13.11,21.6-19.48c6.42-6.69,9.54-13.33,11.4-19.9C509.64,167.92,511.31,158.47,509.34,151.74z"/>
<path class="st2" d="M418.33,263.96c0,0,9.35,12.88,11.12,12.88c1.77,0-1.57,6.22-1.57,6.22l-3.73,5.33l-3.29,6.74l3.8,3.8
	l14.44-0.16l9.66-2.23l2.27-0.92l-14.26-22.67L418.33,263.96z"/>
<path class="st3" d="M509.34,151.74c-2-6.82-7.66-10.91-10.93-13.76c-7.6-6.65-27.12-7.51-41.81-0.14
	c-10.93,5.49-21.03,17.44-31.59,28.95c-12.42,13.54-20.88,28.9-24.55,42.31c-1.24,3.08-1.89,6.83-1.96,11.05
	c-0.3,4.27,0.05,8.15,1.07,11.47c1.36,7.21,3.99,15.07,7.93,22.93c5.16,10.29,11.68,18.87,18.38,24.85
	c-5.47,3.33-8.94,7.46-7.88,11.38c0.66,2.44-2.81,5.95-0.01,7.24c4.66,2.16,19.68,1.59,27-0.28c11.71-3,19.78-10.71,18.03-17.22
	c-0.59-2.2-2.03-4.16-3.16-6.56c-4.6-9.7-2.07-24.47-9.75-39.78c-0.34-0.67-0.68-1.33-1.02-1.98c8.36-5.1,17.13-11.56,25.83-18.79
	c7.01-5.83,15.49-13.11,21.6-19.48c6.42-6.69,9.54-13.33,11.4-19.9C509.64,167.92,511.31,158.47,509.34,151.74z"/>
<path class="st1" d="M351.77,153.26c-13.85,0-28.52,19.04-28.52,42.54c0,11.79,0.42,28.79,4.98,36.49
	c-6.11,6.11-5.65,10.94-9.57,23.19c-3.71,11.6-4.99,22.66-3.2,30.28c-0.45,0.01-0.89,0.02-1.34,0.04
	c-9.99,0.53-17.9,4.38-17.68,8.59c0.22,4.22,8.5,7.2,18.49,6.67c8.16-0.43,14.93-3.08,17.02-6.33c6.01-2.34,11.67-7.81,14.56-12.51
	c3.31-5.38,6.58-9,9.97-16.38c3.57-7.77,10.47-26.12,11.39-26.22c0.28-0.62,0.63-1.19,1.03-1.73c0.15-0.67,0.36-1.32,0.64-1.95
	c2.58-8.61,7.09-25.99,7.31-40.16C377.21,172.31,365.62,153.26,351.77,153.26z"/>
<path class="st2" d="M333.27,209.32c0,0-0.89,21.1,2,23.99c2.89,2.89-22.65,32.6-14.88,52.5c7.77,19.9,3.78-9.19-14.21,8.8
	c0,0-2.04,7.02,5.55,6.51s15.79-2.92,15.79-2.92l4.44-3.45l8.29-5.23l20.13-40.44v-30.14l-3.55-10.95l-12.37-5.27L333.27,209.32z"/>
<path class="st3" d="M351.77,153.26c-13.85,0-28.52,19.04-28.52,42.54c0,11.79,0.42,28.79,4.98,36.49
	c-6.11,6.11-5.65,10.94-9.57,23.19c-3.71,11.6-4.99,22.66-3.2,30.28c-0.45,0.01-0.89,0.02-1.34,0.04
	c-9.99,0.53-17.9,4.38-17.68,8.59c0.22,4.22,8.5,7.2,18.49,6.67c8.16-0.43,14.93-3.08,17.02-6.33c6.01-2.34,11.67-7.81,14.56-12.51
	c3.31-5.38,6.58-9,9.97-16.38c3.57-7.77,10.47-26.12,11.39-26.22c0.28-0.62,0.63-1.19,1.03-1.73c0.15-0.67,0.36-1.32,0.64-1.95
	c2.58-8.61,7.09-25.99,7.31-40.16C377.21,172.31,365.62,153.26,351.77,153.26z"/>
<polygon class="st4" points="472.61,130.25 497.85,130.25 519.29,154.02 525.39,192 472.61,242.64 463.48,279.06 443.48,275.4 
	418.37,262.37 415.83,248.87 416.74,229.33 423.65,200.96 432.47,180.97 442.73,163.97 458.55,144.04 "/>
<polyline class="st5" points="400.37,243.97 402.02,237.75 403.64,220.2 398.4,216.02 376.85,211.1 369.69,198.88 352.81,146.91 
	388.35,119.52 406.89,105 408.12,103.77 409.59,99.06 403.64,100.67 399.46,99.06 398.4,97.34 398.4,95.16 399.46,92.72 
	401.16,92.72 406.89,93.61 408.12,86.67 415.75,87.79 426.11,87.79 444.31,86.62 462.88,85.48 475.41,85.44 487.6,86.42 
	499.94,88.6 514.93,92.97 523.67,97.34 525.39,99.06 516.95,101.16 501.84,108.02 488.3,116.26 473.86,127.32 464.53,136.03 
	452.98,144.25 415.75,198.83 408.12,236.64 408.12,252.83 400.37,245.08 "/>
<path class="st2" d="M416.03,236.63c0,0-11.1-0.41-14.87-4.17c-3.76-3.76-6.59,9.28-6.59,9.28l20.7,18.23l0.76-22.45V236.63z"/>
<path class="st6" d="M416.03,236.63c0,0,95.59,24.96,156-10.06l-9.11,13.66l-11.65,10.58l-12.41,9.17l-6.74,3.98l-9.92,4.85
	l-9.32,3.6l-13.34,3.74l-5.52,1.11l-9.82,1.36l-12.57,0.68l-12.22-0.68l-15.94-3.21l-15.41-6.69l-10.85-8.74l-1.39-11.11
	L416.03,236.63z"/>
<path class="st3" d="M584.56,182.33c0,25.35-11.44,48.44-30.15,65.7c-16.99,15.69-39.98,26.6-65.89,30.09
	c-5.85,0.77-11.84,1.19-17.95,1.19c-2.81,0-5.51-0.11-8.12-0.32c-9.76-0.76-18.18-2.89-25.67-6.02c-6.8-2.81-12.82-6.44-18.41-10.59
	c-0.47-0.34-0.94-0.7-1.4-1.04c-3.66-2.81-7.15-5.83-10.53-9.01c-2.53-2.36-5-4.78-7.48-7.25c-8.17-8.19-16.2-16.8-25.43-24.54
	c-6.74-5.64-14.14-10.84-22.73-15.05c-0.72-0.36-1.43-0.7-2.17-1.04c-1.4-0.64-2.72-1.19-4-1.66c-0.08-0.02-0.13-0.06-0.19-0.08
	c-7.59-2.76-13.4-2.68-20.05-2.02c-0.38,0.04-0.76,0.08-1.13,0.11c-0.51,0.06-1,0.11-1.53,0.17c-4.87,0.53-10.35,1.21-17.33,1.21
	h-0.93c-44.67-0.51-80.74-36.87-80.74-81.67c0-45.1,36.57-81.67,81.67-81.67c39.08,0,45.76,20.94,75.04,37.19
	c1.06,0.6,2.13,1.17,3.25,1.76c2.79,1.43,5.8,2.83,9.04,4.15c0.74,0.3,1.45,0.59,2.17,0.85c1.7,0.64,3.38,1.23,5.02,1.72
	c0.36,0.11,0.72,0.21,1.06,0.32c2.28,0.66,4.53,1.19,6.74,1.59c19.52,3.72,36.93-1.08,63.85-1.08c15.74,0,30.73,2.72,44.36,7.63
	c4.15,1.49,8.17,3.19,12.04,5.06c0.28,0.13,0.57,0.28,0.85,0.43c0.66,0.3,1.28,0.62,1.93,0.96
	C562.62,116.46,584.56,147.21,584.56,182.33z"/>
<path class="st7" d="M222.73,113.1c-4.67,18.3-14.83,41.69-29.19,27.33"/>
<g>
	<g>
		<path class="st8" d="M193.12,189.96c0.8,0,0.81-1.25,0-1.25C192.32,188.71,192.32,189.96,193.12,189.96L193.12,189.96z"/>
	</g>
</g>
<g>
	<g>
		<path class="st8" d="M188.68,162.29c3.22,0,3.22-5,0-5C185.46,157.29,185.46,162.29,188.68,162.29L188.68,162.29z"/>
	</g>
</g>
<g>
	<g>
		<path class="st8" d="M188.54,139.52c1.72,5.02,5.88,9.96,4.69,15.56c0.26-0.15,0.51-0.29,0.77-0.44c-1.2-0.45-1.61-1.81-1.71-2.97
			c-0.11-1.21-0.06-2.42-0.22-3.63c-0.32-2.37-1.11-4.63-2.32-6.69c-0.32-0.55-1.14-0.29-1.16,0.32c-0.1,2.02-0.13,4.04-0.1,6.07
			c0.01,0.81,1.21,0.8,1.25,0c0.1-1.89,0.23-3.79,0.29-5.68c0.04-1.22-0.79-2.31-2.11-1.76c-1.22,0.51-1.73,2.3-2.06,3.46
			c-0.45,1.61-0.57,3.29-0.37,4.95c0.07,0.56,0.62,0.8,1.07,0.44c1.39-1.11,2.19-2.67,2.41-4.42c0.1-0.8-1.15-0.79-1.25,0
			c-0.18,1.43-0.93,2.65-2.04,3.54c0.36,0.15,0.71,0.29,1.07,0.44c-0.27-2.23,0.01-4.71,1.15-6.69c0.27-0.47,0.89-0.95,0.89-0.06
			c0,0.61-0.06,1.23-0.09,1.84c-0.07,1.32-0.13,2.63-0.2,3.94c0.42,0,0.83,0,1.25,0c-0.03-2.02,0.01-4.05,0.1-6.07
			c-0.39,0.11-0.78,0.21-1.16,0.32c1.42,2.41,2.21,5.11,2.3,7.91c0.08,2.29,0.18,5.01,2.69,5.95c0.3,0.11,0.7-0.13,0.77-0.44
			c1.26-5.96-2.87-10.9-4.69-16.22C189.49,138.43,188.28,138.76,188.54,139.52L188.54,139.52z"/>
	</g>
</g>
<g>
	<g>
		<path class="st8" d="M188.24,173.4c3.22,0,3.22-5,0-5C185.02,168.4,185.01,173.4,188.24,173.4L188.24,173.4z"/>
	</g>
</g>
<g>
	<g>
		<path class="st8" d="M188.46,155.19c3.22,0,3.22-5,0-5C185.24,150.19,185.24,155.19,188.46,155.19L188.46,155.19z"/>
	</g>
</g>
<g>
	<g>
		<path class="st8" d="M187.2,164.92c0.21,4.01,0.35,7.97-0.45,11.92c-0.8,3.98,0.07,7.38,2.77,10.43c1.15,1.29,3.06,0.73,3.93-0.51
			c0.75-1.07,0.98-2.37,0.95-3.66c-0.02-1-0.25-2.01,0.02-2.99c0.31-1.16,0.89-2.23,1.11-3.41c0.27-1.46,0.14-2.78-0.51-4.12
			c-0.47-0.99-0.87-1.85-1.1-2.94c-0.29-1.39-0.5-2.8-0.71-4.2c-0.43-2.83-0.73-5.68-0.95-8.53c-0.1-1.35-1.07-2.5-2.5-2.5
			c-1.27,0-2.61,1.15-2.5,2.5c0.21,2.73,0.52,5.46,0.89,8.17c0.35,2.52,0.55,5.31,1.47,7.71c0.29,0.77,1.02,1.67,1.08,2.49
			c0.07,0.95-0.63,2.04-0.92,2.92c-0.36,1.08-0.52,2.21-0.47,3.35c0.04,0.87,0.36,1.93-0.17,2.68c1.31-0.17,2.62-0.34,3.93-0.51
			c-0.83-0.93-1.55-2.11-1.69-3.38c-0.16-1.47,0.4-3,0.61-4.43c0.54-3.66,0.41-7.33,0.21-11.01
			C192.03,161.72,187.03,161.7,187.2,164.92L187.2,164.92z"/>
	</g>
</g>
<g>
	<g>
		<path class="st8" d="M188.9,168.96c3.22,0,3.22-5,0-5C185.69,163.96,185.68,168.96,188.9,168.96L188.9,168.96z"/>
	</g>
</g>
<g>
	<g>
		<path class="st8" d="M188.9,164.74c3.22,0,3.22-5,0-5C185.69,159.74,185.68,164.74,188.9,164.74L188.9,164.74z"/>
	</g>
</g>
<path class="st3" d="M197.04,163.19c1.01,8.5,3.07,25.82-2.04,27.68c-1.69,0.61-3.57-0.68-4.62-1.4
	c-7.56-5.19-6.66-18.05-6.66-26.27c0-14.51,2.98-26.27,6.66-26.27C193.93,136.92,196.03,154.66,197.04,163.19z"/>
<path class="st7" d="M295.06,40.77"/>
<g id="Слой_2">
	<path class="st9" d="M282.13,43.27c2.42-3.46,6.13-8.27,11.36-13.33c2.28-2.21,5.44-5.03,11.73-9.6C321.57,8.48,338.17,0,338.17,0
		c1.58,3.83,6.68,17.57,0.61,31.76c-2,4.67-5.54,8.91-6.43,10.02c-2.66,3.32-5.26,5.78-4.93,6.17c0.48,0.56,6.18-4.51,7.2-3.58
		c0.83,0.77-1.34,5.73-5.45,8.49c-3.27,2.2-6.78,2.34-8.58,2.26"/>
	<path class="st9" d="M219.93,191.75c0,0,2.1,1.46,6.73,2.45c4.63,0.98,10.87,0.95,10.87,0.95l17.29-1.7l3.51-0.59l11.51,2.32
		l-8.04-2.32l-1.34-0.4c0,0-2.72,0.55-6.7,1.15c-2.79,0.42-6.23,0.87-9.78,1.17c-0.26,0.04-0.53,0.06-0.77,0.06
		c-3.23,0.28-6.51,0.4-9.5,0.26c-1.49-0.06-2.91-0.17-4.21-0.38c-0.11-0.02-0.25-0.04-0.36-0.06c-11.1-1.89-10.06-4.4-10.06-4.4
		l3.17,2.59l7.25,1.87l1.79,0.45l2.42-0.08l9.5-0.26h0.34l0.43-0.06l9.78-1.17l8.04-0.76l15.8,4.98l13.5,3.34l13.57,2.3l7.76,8.16
		l5.95,11.89l1.47-2.36l1.57-10.31V198.2l2.49,2.49l5.08,3.98l6.29,6.29l5.17,9.38l2.1-6.36l1.57-8.87l-1.4-8.76l-2.96-3.49l-3.81-3
		l8.76,2.28h9.42l7.55-1.87l-2.47-2.47l-5.08-6.83l-1.91-6.74l6.23,5.78l6.17,1.62l-2.64-3.59l-0.64-7.87l5.8,4.06l5.3,3.62
		l2.76-3.95l2-3.79l0.77-9.68l-1.53-3.72l1.04-2.64l-2.78-4.12l6.19,4.97l4.98,9.48l2.17-4l1.7-6.32l-1.89-8.78l5.51,1.98l8.59-0.77
		l5.68-4.19l-4.47-1.64l-5.49-2.87l-7.34-7.34l4.42,2.28l11.63,1.04l3.34-2.08l-10.74-2.7l-2.66-3.85l0.04-5.15l1.55-4.78l2.78,1.4
		l4.97,4.97v-6.42l-0.72-9.29l-2.89-1.42l9.51-3.49l3.72-2.83l-14.59,2.4l-2.87-1.47l-0.66-5.44l2.76-2.76l5.49,3.17l0.85-5.3
		l-0.83-7.12h-2.25l-3.27,1.45l-5.42,1.45l-0.64-2.81l12.54-14.16l-13,8.52l-7.05,1.74l-11.4-4.94l-11.02-6.7l-5.05-5.09l-8.77,2.71
		l8.44-7.64l2.81-3.12l3.53-3.93l3.99-7.1c0,0,1.02-4.45,2.05-8.14c1.03-3.7,2.07-7.86,2.13-9.75c0.09-3.13-2-12.37-2-12.37
		L341.2,22.87l-12.46,6.43l-17.98,9.78l-15.12,0.19l-12.79,2.33l-16.18,6.23L248.43,60.6l-10.9,12.35l-6.66,11.02l-5.28,13.37
		l-2.27,10.69l-4.24,14.23l-3.67,10.03l-5.14,7.95l-4.08,2.47l-3.49,2.11l-6.8-2l-4.23-4.34l3.95,20.6l2.19,22.56l-2.19,8.16
		c1.96,1.94,5.49,1.08,5.49,1.08l5.46-1.64l4.46-5.83l1.3-7.19l1.06-2.28l2.08,4.34l2.68,7.32"/>
	<path class="st9" d="M300.39,50.17c3.36-3.45,8.43-8.19,15.26-12.93c2.98-2.07,7.05-4.67,14.99-8.66
		c20.6-10.36,40.86-16.86,40.86-16.86l0,0c1.07,4.61,4.3,21.03-5.16,35.9c-3.11,4.89-7.89,9.02-9.09,10.11
		c-3.61,3.25-6.99,5.55-6.69,6.04c0.43,0.72,7.8-3.94,8.77-2.71c0.8,1.02-2.57,6.21-7.71,8.56c-4.09,1.87-8.07,1.39-10.08,0.97"/>
	<path class="st1" d="M353.3,198.83c-3.03,6.58-4.9,14.4-4.9,22.78c0,11.79,0.42,28.79,4.98,36.49c-6.11,6.11-5.65,10.94-9.57,23.19
		c-3.71,11.6-4.99,22.66-3.2,30.28c-0.45,0.01-0.89,0.02-1.34,0.04c-9.99,0.53-17.9,4.38-17.68,8.59c0.22,4.22,8.5,7.2,18.49,6.67
		c8.16-0.43,14.93-3.08,17.02-6.33c6.01-2.34,11.67-7.81,14.56-12.51c3.31-5.38,6.58-9,9.97-16.38
		c3.57-7.77,10.47-26.12,11.39-26.22c0.28-0.62,0.63-1.19,1.03-1.73c0.15-0.67,0.36-1.32,0.64-1.95c2.58-8.61,7.09-25.99,7.31-40.16
		c0.03-1.72-0.01-3.41-0.11-5.07"/>
	<path class="st10" d="M198.23,176.19c0,0,10.44,2.42,15.15-2.28c4.7-4.7-7.76,17.5,49.71,2.91c0,0,67.73,11.86,89.61-2.58
		l1.42,6.73l5.08,6.83l5.15,2.07l-6.83,1.89L347.26,192l-10.84-2.13l5.26,4.01l1.79,7.23v7.62l-0.93,5.26l-0.86,4.26l-0.75,2.1
		l-3.22-5.91l-2.43-3.47l-3.56-4.53l-5.87-5.87l-3.95-1.28l-0.4,5.16l-0.08,6.43l-0.93,6.09l-2.53,4.22l-3.95-6.37l-4.48-7.38
		l-2.73-2.63l-11.76-4.14l-9.25-1.78l-12.95-3.78l-8.44-2.25l-5.39-1.83l-3.94,1.43l-9.55,0.4l-6.22,0.76h-7.55l-6.89-0.76
		l-18.43-6.05l-2,0.99l-1.47,1.18l-4.75,0.8l-1.17-1.17"/>
	<path class="st3" d="M378.8,75.47c0.21,0.21,0.42,0.42,0.64,0.57c0.98,0.85,6.18,1.42,7.35,1.76c9.42,2.66,19.28-9.68,20.06-10.25"
		/>
	<path class="st3" d="M406.89,67.51c0,0-0.02,0.02-0.04,0.04c-0.17,0.19-1.15,1.13-3.21,3.23c-5.91,6.02-9.31,9.93-9.74,12.03
		c-0.38,1.72,1.23,2.23,5.02,1.72c0.77-0.11,1.62-0.26,2.59-0.45"/>
	<path class="st3" d="M406.72,86.42c0.38,3.11-0.85,7.61-0.85,7.61s-8.42-8.57-8.42,2.45c0,11.04,29.32-4.06,16.54,3.4
		c-4.55,2.66-8.55,3.98-11.48,4.57c-5.27,1.09-6.99-0.17-2.06-0.17c0.77,0,1.47,0.06,2.06,0.17c5.21,0.94,3.61,5.61,3.61,5.61v11.52
		c0,0-9.33-14.91-9.33,0s25.98,7.42,11.33,12.2c-8.27,2.7-14.63-1.3-18.6-5.3c-0.04-0.04-0.08-0.08-0.11-0.11
		c-2.25-2.3-3.7-4.57-4.3-5.57"/>
	<path class="st3" d="M384.8,122.25c0,0.02,0.02,0.02,0.02,0.04c0.02,0.02,0.04,0.06,0.06,0.09c0.04,0.06,0.08,0.13,0.11,0.21
		c0.02,0.04,0.04,0.06,0.06,0.09c0.02,0.02,0.04,0.06,0.06,0.09c0.79,1.25,2.51,3.42,4.3,5.57c0.04,0.04,0.08,0.08,0.11,0.11
		c1.77,2.13,3.61,4.21,4.61,5.3c5.02,5.49,10.89,7.66,13.99,8.53c-1.08,1.26-2.91,3.04-5.68,4.19c-4.57,1.91-8.97,0.93-11.65-0.08
		c-1.25-0.47-2.13-0.94-2.45-1.13c1.04,1.21,2.19,1.36,2.45,1.13c0.28-0.25-0.25-0.81-2.45-1.13c3.68,5.66,1.79,13.35-1.98,19.11
		c-3.38-6.87-5.25-12.21-11.18-14.44c0,0-0.02-0.02-0.04-0.02c-0.68-0.26-1.42-0.49-2.23-0.66c0.79-0.08,1.55,0.17,2.23,0.66
		c0.02,0,0.04,0.02,0.04,0.02c2.83,2,4.27,7.65,1.74,6.76c3.7,6.91,2.17,12.55-2.76,19.46c-0.4,0.55-0.81,1.11-1.25,1.68l0,0
		c-2.44,1.94,3.02,4.91,0,0c-3.66,0-7.32-7.68-11.1-7.68c0,6.85,0,9.12,4.13,12.1h0.02c0.49,0.36,1.04,0.74,1.66,1.11"/>
	<path class="st3" d="M303.47,202.29c7.62,4.92,12.53,13.08,15.39,21.24c5.51-7.04,1.94-16.26,3.04-24.26
		c9.02,4.69,15.45,11.91,19.04,21.06c3.53-9.61,7.87-24.85-4.51-30.48c9.09,3.91,19.87,2.84,29.11,0
		c-6.99,0.66-12.68-10.1-12.84-15.64c4.65,7.98,15.72,9.28,24.31,8.07"/>
	<path class="st7" d="M208.13,187.8c0,0,4.67-2.62,4.67-11.62c0-8.99,6.54,11.62,6.54,11.62s1.65,5.06-4.21,5.06
		C209.85,192.86,208.13,187.8,208.13,187.8z"/>
	<path class="st3" d="M417.22,262.89c-11.99-73.45,51.7-147.67,110.31-163.83"/>
	<path class="st3" d="M480.12,124.02c0,0,13.62-2.13,42.17,12.55c28.56,14.68,33.63,46.81,33.63,46.81s1.33,2.83,2.4,21.78
		s-4.22,44.55-4.22,44.55"/>
	<path class="st11" d="M329.49,140.91"/>
	<path class="st11" d="M322.58,116.59c0,0-2.67,4.48,1.55,4.48c4.22,0,2.67-5.77,1.55-6.89"/>
	<path class="st11" d="M314.12,158.96c0,0-2.66,2.48-1.33,3.77c1.33,1.29,3.01,1.99,5.06,0c2.05-1.99-1.12-6.77-1.12-6.77"/>
	<path class="st11" d="M273.46,144.56c0,0-1.24,1.96,0,2.9c1.24,0.94,3.62,0,3.62,0s1.6-2.13-1.14-4.23"/>
	<path class="st3" d="M190.39,136.92l2.84,9.71l2.86,17.35l1.71,17.65l-2.8,9.24c0,0,2.53,1.99,8.37,0
		c5.36-1.83,4.76-3.07,4.76-3.07"/>
	<path class="st12" d="M293.92,316.95c0,0-6.66,4-6.66,0c0-4,3.33-4,3.33-4L293.92,316.95z"/>
	<path class="st12" d="M237.42,301.31c-3.02,3.02,5.66,7.33,5.66,3.02S237.42,301.31,237.42,301.31z"/>
	<path class="st12" d="M253.53,300.1c0,0,8.33-7.47,8.33,0.43c0,7.9-8.33,9.84-8.33,9.84V300.1z"/>
	<path class="st12" d="M269.86,313.24c0,0,0.76,5.74,3.07,3.43s3.13-5.23,1.26-5.23C272.32,311.44,269.86,309.51,269.86,313.24z"/>
	<path class="st12" d="M302.98,312.61c2.25,5.23,7.05-2.2,7.05-2.2s-0.63-6.45-5.55-3.23C299.57,310.4,302.98,312.61,302.98,312.61z
		"/>
	<path class="st12" d="M390.99,301.89c4.28,3.72,8.27-2.87,8.27-2.87c-6.66-2.68-1.67-4.13-6.66-2.68s-1.61,4.39-1.61,4.39V301.89z"
		/>
	<path class="st12" d="M423.57,312.55c0,0,10.61,14.29,12.45,0c1.84-14.29-9.22-8.36-9.22-8.36S420.35,309.32,423.57,312.55z"/>
	<path class="st12" d="M280.7,298.94c0,0-13.47,9.27-3.16,9.27s13.04-3.63,13.04-3.63L280.7,298.94z"/>
	<path class="st12" d="M381.42,317.98c0,0,11.68,10.59,15.97,6.29s-7.72-11.77-7.72-11.77L381.42,317.98z"/>
	<path class="st12" d="M538.33,308.68c0,0,2.34,18.09,10.22,10.22c7.88-7.88-1.26-16.09-1.26-16.09l-6.51,6.51L538.33,308.68z"/>
	<path class="st12" d="M518.57,310.63c0,0-6.19,11.49,2.33,5.74c8.53-5.74,2.26-11.06,2.26-11.06l-6.76,3.86L518.57,310.63z"/>
	<path class="st12" d="M546.62,298.91c0,0,23.76,16.14,15.68,4.27s-18.98-7.71-18.98-7.71L546.62,298.91z"/>
	<path class="st12" d="M577.49,323.52c8.89,3.83,4.56-6.16,4.56-6.16l-6.33,3.52L577.49,323.52z"/>
	<path class="st12" d="M586.57,314.41c4.61,9.26,8.27-0.38,8.27-0.38s1.39-14.34-4.14-7.17
		C585.18,314.03,586.57,314.41,586.57,314.41z"/>
</g>
<path class="st13" d="M187.46,169.94c0,0,1.11,16.85,3.59,10.08s-0.04-16.05-0.04-16.05s0.02-15.18-1.76-7.98"/>
<path class="st14" d="M267.15,120.67c0,0,4.11-13.27,10.12-19.28c6.01-6.01,8.21-7.44,15.46-10.12c7.25-2.67,19.17-2.67,19.17-2.67
	s3.55,7.63,1.45,18.13s-7.22,13.75-11.64,16.41c-4.52,2.71-12.29,5.39-20.58,3.29C281.14,126.43,270.3,123.81,267.15,120.67z"/>
<g>
	<g>
		<path class="st15" d="M307.74,91.45c-1.37,0.58-2.89,0.97-4.37,1.13c-1.34,0.14-2.5,1.05-2.5,2.5c0,1.41,1.15,2.43,2.5,2.5
			c1.87,0.1,3.55-0.9,4.5-2.48c0.83-1.37,0.05-3.27-1.49-3.67c-2.01-0.53-3.44,0.42-5.23,1.16c-1.4,0.58-2.92,0.92-4.43,1.03
			c0.42,1.55,0.84,3.11,1.26,4.66c1.6-0.73,3.2-1.46,4.8-2.18c2.02-0.92,1.35-4.05-0.6-4.57c-2.59-0.69-5.31-0.38-7.67,0.88
			c-0.28,0.15-2.75,1.92-2.67,2.01c-0.07-0.09,2.31,0.28,0.52-0.3c-0.29-0.09-0.6-0.18-0.92-0.18c-1,0-1.7,0.51-2.38,1.15
			c-0.58,0.54-1.73,0.67-2.5,1.12c-1.23,0.73-2.02,1.92-2.51,3.23c-0.8,2.16-1.1,5.24-0.27,7.41c0.9,2.33,2.94,4.53,4.79,6.18
			c2.1,1.88,4.57,2.89,7.35,3.25c4.92,0.62,10.81-0.18,13.66-4.72c1.5-2.39,1.8-5.28,1.81-8.03c0.01-1.52,0.99-2.82,0.51-4.38
			c-0.22-0.71-0.65-1.34-1.15-1.88c-0.33-0.35-0.77-0.52-0.83-0.94c0,0.44,0,0.89,0,1.33c-0.03,0.01-0.05,0.03-0.08,0.04
			c1.01-1.99-0.65-4.14-2.82-3.67c-1.74,0.37-3.45,0.8-5.06,1.59c-1.59,0.78-2.7,2.21-4.25,3.03c-2.67,1.4-7.67,1.64-7.79,5.63
			c-0.06,1.88,1.24,3.28,2.86,4.02c1.79,0.82,3.75,1.49,5.74,1.36c3.59-0.23,7.05-3.65,5.76-7.41c-1.04-3.03-5.87-1.73-4.82,1.33
			c0.1,0.3,0.19,0.19,0.02,0.48c0,0-0.26,0.28-0.36,0.34c-0.66,0.47-1.64,0.28-2.41,0.06c-0.47-0.13-0.95-0.29-1.4-0.48
			c-0.19-0.08-0.36-0.19-0.55-0.27c-0.3-0.22-0.35-0.22-0.13-0.02c0.22,0.17,0.27,0.42,0.14,0.73c0.01,0.98-0.16,0.59,0.28,0.52
			c0.46-0.07,0.99-0.37,1.43-0.52c2.23-0.75,4.23-1.56,6.03-3.12c1.73-1.5,3.61-1.99,5.82-2.46c-0.94-1.22-1.88-2.45-2.82-3.67
			c-0.97,1.91-0.3,3.79,1.21,5.18c0.06,0.06,0.44,0.45,0.48,0.43c-0.31,0.11,0.19-0.81-0.29-0.39c-0.09,0.08-0.19,0.44-0.23,0.56
			c-0.3,0.95-0.3,1.96-0.3,2.95c-0.01,2.69-0.5,5.71-3.28,6.86c-2.55,1.05-6.02,0.96-8.6,0.13c-1.5-0.49-2.62-1.52-3.67-2.67
			c-0.86-0.94-2.24-2.15-2.49-3.47c-0.18-0.93-0.09-3.55,0.72-4.25c0.21-0.18,0.94-0.3,1.28-0.42c1.1-0.41,1.76-1.02,2.59-1.8
			c-0.37,0.21-0.74,0.43-1.1,0.64c0.09-0.03,0.19-0.05,0.28-0.08c-0.44,0-0.89,0-1.33,0c0.87,0.32,2.06,0.63,3.3,0.03
			c0.86-0.42,1.45-1.12,2.2-1.68c1.32-0.99,3.01-1.26,4.59-0.84c-0.2-1.52-0.4-3.05-0.6-4.57c-1.6,0.73-3.2,1.46-4.8,2.18
			c-2.25,1.02-1.14,4.83,1.26,4.66c1.62-0.12,3.23-0.37,4.78-0.86c0.74-0.24,1.46-0.53,2.17-0.85c0.37-0.17,0.73-0.38,1.11-0.53
			c0.29-0.12,0.71,0,0.27-0.12c-0.5-1.22-1-2.45-1.49-3.67c-0.01,0.01,0.84,0.06-0.18,0.01c0,1.67,0,3.33,0,5
			c2.43-0.26,4.64-0.85,6.89-1.81c1.24-0.53,1.52-2.36,0.9-3.42C310.4,91.06,308.98,90.92,307.74,91.45L307.74,91.45z"/>
	</g>
</g>
<path class="st16" d="M282.05,96.52c-0.68,1.81-1.05,3.77-1.05,5.81c0,9.49,8.03,17.19,17.93,17.19c4.77,0,9.1-1.78,12.31-4.69"/>
<path class="st17" d="M313.62,107.27c-0.02,0.03-0.04,0.06-0.07,0.09c-9.34,12.18-29.81,5.32-29.81,5.32l2.32,2.42l2.44,1.98
	l4.04,1.83l4.04,1.08h3.62l4.36-0.45l3.61-1.72c0,0,2.8-4.29,5.18-8.13l0.35-1.54C313.67,107.86,313.64,107.57,313.62,107.27z"/>
<circle class="st18" cx="301.47" cy="102.68" r="5.34"/>
<path class="st1" d="M537.79,170.04c-2.24-6.9-8.05-10.87-11.41-13.67c-7.83-6.52-27.37-6.69-41.79,1.38
	c-10.73,6.01-20.39,18.6-30.53,30.75c-11.93,14.29-19.83,30.31-23.02,44.16c-1.13,3.2-1.64,7.06-1.56,11.37
	c-0.15,4.38,0.34,8.33,1.48,11.69c1.62,7.33,4.52,15.26,8.74,23.15c5.98,11.17,13.48,20.25,20.95,26.12
	c-5.5,2.84-10.7,6.34-12.39,8.99c-1.75,2.74,3.1,4.5,3.81,7.31c1.89,7.47,14.88,9.19,26.62,6.23c11.75-2.96,19.74-11.43,17.85-18.9
	c-0.75-2.96-2.5-5.87-3.86-9.08c-4.37-10.33-1.97-25.91-11.14-43.05c-0.36-0.67-0.73-1.33-1.09-1.99
	c8.18-5.52,16.7-12.44,25.14-20.15c6.8-6.21,15.01-13.97,20.89-20.71c6.18-7.07,9.05-13.98,10.68-20.76
	C538.67,186.57,540,176.85,537.79,170.04z"/>
<polygon class="st19" points="84.17,163.07 73.73,163.07 0,163.07 11.74,110.76 75.36,134.69 99.17,143.63 "/>
<polygon class="st19" points="144.99,128.99 121.69,105.38 77.14,59.63 112.41,30.56 142.7,79.94 154.05,98.41 "/>
<polygon class="st19" points="138.1,230.24 107.89,250.12 51.54,291.07 2.74,257.33 91.11,227.17 115.18,218.94 "/>
<path class="st3" d="M267.15,120.8c0,0,4.11-13.27,10.12-19.28c6.01-6.01,8.21-7.44,15.46-10.12c7.25-2.67,19.17-2.67,19.17-2.67
	s3.55,7.63,1.45,18.13c-2.1,10.5-7.22,13.75-11.64,16.41c-4.52,2.71-12.29,5.39-20.58,3.29C281.14,126.56,270.3,123.94,267.15,120.8
	z"/>
</svg>
